<svg xmlns="http://www.w3.org/2000/svg" version="1.1"
    xmlns:xlink="http://www.w3.org/1999/xlink"
    xmlns:svgjs="http://svgjs.dev/svgjs" width="1440" height="260" preserveAspectRatio="none" viewBox="0 0 1440 560">
    <g mask="url(&quot;#SvgjsMask1035&quot;)" fill="none">
        <rect width="1440" height="560" x="0" y="0" fill="#0e2a47"></rect>
        <rect width="336" height="336" clip-path="url(&quot;#SvgjsClipPath1036&quot;)" x="-164.13" y="-63.63" fill="url(&quot;#SvgjsPattern1037&quot;)" transform="rotate(279.86, 3.87, 104.37)"></rect>
        <path d="M957.34 271.64 L1002.58 347.65L939.9792209695756 349.6257790304243z" stroke="#037b0b" stroke-width="1" stroke-dasharray="4, 4"></path>
        <rect width="360" height="360" clip-path="url(&quot;#SvgjsClipPath1038&quot;)" x="1003.83" y="-137.81" fill="url(&quot;#SvgjsPattern1039&quot;)" transform="rotate(90.53, 1183.83, 42.19)"></rect>
        <rect width="156" height="156" clip-path="url(&quot;#SvgjsClipPath1040&quot;)" x="759.68" y="300.54" fill="url(&quot;#SvgjsPattern1041&quot;)" transform="rotate(356, 837.68, 378.54)"></rect>
        <path d="M1290.84 148.07L1296.09 159.75 1285.85 167.44 1291.1 179.12 1280.85 186.81 1286.1 198.49 1275.86 206.17M1283.09 146.08L1288.34 157.76 1278.1 165.44 1283.35 177.12 1273.11 184.81 1278.36 196.49 1268.11 204.17M1275.35 144.08L1280.6 155.76 1270.35 163.44 1275.6 175.12 1265.36 182.81 1270.61 194.49 1260.37 202.18" stroke="#d3b714" stroke-width="2.53" stroke-dasharray="3, 3"></path>
        <rect width="240" height="240" clip-path="url(&quot;#SvgjsClipPath1042&quot;)" x="954.21" y="195.24" fill="url(&quot;#SvgjsPattern1043&quot;)" transform="rotate(7.45, 1074.21, 315.24)"></rect>
        <path d="M930.23 199.44 L915.62 290.16999999999996L967.111970843501 288.99197084350106z" stroke="#e73635" stroke-width="2.8"></path>
        <rect width="82.8" height="82.8" clip-path="url(&quot;#SvgjsClipPath1044&quot;)" x="1024.35" y="-24.85" fill="url(&quot;#SvgjsPattern1045&quot;)" transform="rotate(255.6, 1065.75, 16.55)"></rect>
        <path d="M1066.08 510.22L1053.62 513.19 1047.99 501.69 1035.53 504.66 1029.9 493.16 1017.44 496.13 1011.81 484.63M1069.49 502.98L1057.03 505.95 1051.4 494.45 1038.94 497.42 1033.31 485.92 1020.85 488.9 1015.22 477.4M1072.9 495.74L1060.44 498.72 1054.81 487.22 1042.35 490.19 1036.72 478.69 1024.26 481.66 1018.63 470.16" stroke="#e73635" stroke-width="2.43" stroke-dasharray="3, 3"></path>
        <path d="M1039.22 314.65a5.6 5.6 0 1 0 2.91-10.81 5.6 5.6 0 1 0-2.91 10.81zM1043.38 299.2a5.6 5.6 0 1 0 2.91-10.81 5.6 5.6 0 1 0-2.91 10.81zM1047.54 283.75a5.6 5.6 0 1 0 2.91-10.81 5.6 5.6 0 1 0-2.91 10.81zM1051.7 268.3a5.6 5.6 0 1 0 2.92-10.81 5.6 5.6 0 1 0-2.92 10.81z" fill="#037b0b"></path>
        <path d="M401.60999999999996 160.5 L472.93999999999994 29.769999999999996L377.36290466335294 35.22290466335294z" stroke="#e73635" stroke-width="2.44" stroke-dasharray="2, 2"></path>
        <path d="M945.84 512.16 L915.32 484.25L955.831404827639 47  2.953595172361z" stroke="#e73635" stroke-width="1.59" stroke-dasharray="3, 3"></path>
    </g>
    <defs>
        <mask id="SvgjsMask1035">
            <rect width="1440" height="560" fill="#ffffff"></rect>
        </mask>
        <pattern x="0" y="0" width="336" height="6" patternUnits="userSpaceOnUse" id="SvgjsPattern1037">
            <rect width="336" height="3" x="0" y="0" fill="#e73635"></rect>
            <rect width="336" height="3" x="0" y="3" fill="rgba(0, 0, 0, 0)"></rect>
        </pattern>
        <clipPath id="SvgjsClipPath1036">
            <circle r="84" cx="3.87" cy="104.37"></circle>
        </clipPath>
        <pattern x="0" y="0" width="6" height="6" patternUnits="userSpaceOnUse" id="SvgjsPattern1039">
            <path d="M3 1L3 5M1 3L5 3" stroke="#d3b714" fill="none" stroke-width="1.35"></path>
        </pattern>
        <clipPath id="SvgjsClipPath1038">
            <circle r="90" cx="1183.83" cy="42.19"></circle>
        </clipPath>
        <pattern x="0" y="0" width="6" height="6" patternUnits="userSpaceOnUse" id="SvgjsPattern1041">
            <path d="M3 1L3 5M1 3L5 3" stroke="#e73635" fill="none" stroke-width="1.57"></path>
        </pattern>
        <clipPath id="SvgjsClipPath1040">
            <circle r="39" cx="837.68" cy="378.54"></circle>
        </clipPath>
        <pattern x="0" y="0" width="6" height="6" patternUnits="userSpaceOnUse" id="SvgjsPattern1043">
            <path d="M3 1L3 5M1 3L5 3" stroke="#d3b714" fill="none" stroke-width="1"></path>
        </pattern>
        <clipPath id="SvgjsClipPath1042">
            <circle r="60" cx="1074.21" cy="315.24"></circle>
        </clipPath>
        <pattern x="0" y="0" width="8.28" height="8.28" patternUnits="userSpaceOnUse" id="SvgjsPattern1045">
            <path d="M0 8.28L4.14 0L8.28 8.28" stroke="#037b0b" fill="none"></path>
        </pattern>
        <clipPath id="SvgjsClipPath1044">
            <circle r="20.7" cx="1065.75" cy="16.55"></circle>
        </clipPath>
    </defs>
</svg>